<?xml version="1.0" encoding="UTF-8" standalone="no"?>
<svg
   xmlns:dc="http://purl.org/dc/elements/1.1/"
   xmlns:cc="http://creativecommons.org/ns#"
   xmlns:rdf="http://www.w3.org/1999/02/22-rdf-syntax-ns#"
   xmlns:svg="http://www.w3.org/2000/svg"
   xmlns="http://www.w3.org/2000/svg"
   xmlns:sodipodi="http://sodipodi.sourceforge.net/DTD/sodipodi-0.dtd"
   xmlns:inkscape="http://www.inkscape.org/namespaces/inkscape"
   version="1.1"
   viewBox="0 0 24 24"
   xml:space="preserve"
   id="svg2"
   inkscape:version="0.91 r13725"
   sodipodi:docname="edit.svg"
   style="enable-background:new 0 0 24 24;"><metadata
     id="metadata15"><rdf:RDF><cc:Work
         rdf:about=""><dc:format>image/svg+xml</dc:format><dc:type
           rdf:resource="http://purl.org/dc/dcmitype/StillImage" /></cc:Work></rdf:RDF></metadata><defs
     id="defs13" /><sodipodi:namedview
     pagecolor="#ffffff"
     bordercolor="#666666"
     borderopacity="1"
     objecttolerance="10"
     gridtolerance="10"
     guidetolerance="10"
     inkscape:pageopacity="0"
     inkscape:pageshadow="2"
     inkscape:window-width="958"
     inkscape:window-height="1008"
     id="namedview11"
     showgrid="false"
     inkscape:showpageshadow="false"
     inkscape:zoom="9.8333333"
     inkscape:cx="-4.5084746"
     inkscape:cy="9"
     inkscape:window-x="2393"
     inkscape:window-y="0"
     inkscape:window-maximized="0"
     inkscape:current-layer="icons" /><g
     id="info" /><g
     id="icons"><g
       id="settings2"><path
         d="M5,11h14c2.2,0,4-1.8,4-4c0-2.2-1.8-4-4-4H5C2.8,3,1,4.8,1,7C1,9.2,2.8,11,5,11z M5,5c1.1,0,2,0.9,2,2c0,1.1-0.9,2-2,2    S3,8.1,3,7C3,5.9,3.9,5,5,5z"
         id="path7" /><path
         d="M19,13H5c-2.2,0-4,1.8-4,4c0,2.2,1.8,4,4,4h14c2.2,0,4-1.8,4-4C23,14.8,21.2,13,19,13z M19,19c-1.1,0-2-0.9-2-2    c0-1.1,0.9-2,2-2s2,0.9,2,2C21,18.1,20.1,19,19,19z"
         id="path9" /></g><path
       style="fill:#212f3d;fill-opacity:1"
       d="M 4.3776749,10.888438 C 3.7125976,10.776389 2.8770482,10.374935 2.3864777,9.9317341 0.27797871,8.0268319 0.78316307,4.6566183 3.3601934,3.435829 l 0.6838744,-0.3239646 7.9830512,0 7.98305,0 0.67008,0.327895 c 0.807023,0.394906 1.522972,1.123347 1.90483,1.9380645 0.241478,0.5152087 0.27251,0.7032245 0.272215,1.6492947 -3.06e-4,0.9783867 -0.02527,1.1170831 -0.298057,1.6564094 -0.600636,1.18749 -1.706196,1.997733 -3.006695,2.203546 -0.781558,0.123686 -14.4415224,0.124914 -15.1748671,0.0014 z M 6.0219527,8.7466163 c 1.7878144,-1.0048078 1.0547066,-3.753396 -1.0011115,-3.753396 -0.6199975,0 -0.9895942,0.1323092 -1.3674429,0.4895205 -1.1429244,1.0805005 -0.773154,2.9200933 0.6957542,3.461349 0.4262298,0.1570548 1.205729,0.065035 1.6728002,-0.1974735 z"
       id="path4155"
       inkscape:connector-curvature="0" /><path
       style="fill:#2c3e50;fill-opacity:1"
       d="M 3.9956858,20.797857 C 3.2218297,20.587733 2.6829757,20.247602 2.0817333,19.589747 1.3714752,18.812612 1.1046706,18.103583 1.1046706,16.99322 c 0,-1.225579 0.2717578,-1.876384 1.150436,-2.755063 0.4861697,-0.486169 0.837941,-0.737605 1.2804866,-0.915254 l 0.6101695,-0.244937 7.4745763,-0.03108 c 5.32603,-0.02215 7.648993,0.0025 8.081356,0.08572 1.246536,0.239961 2.296657,1.042698 2.856988,2.183945 0.273156,0.556349 0.298944,0.700982 0.298944,1.676668 0,0.960006 -0.02834,1.125503 -0.28073,1.639439 -0.438196,0.892288 -0.998377,1.45564 -1.881538,1.892187 l -0.7761,0.383629 -7.683359,0.02029 c -6.5271625,0.01724 -7.7671536,-0.0025 -8.2402142,-0.13091 z M 19.938748,18.809074 c 0.516955,-0.250254 0.985123,-0.899652 1.088132,-1.509351 0.139025,-0.822888 -0.324248,-1.691993 -1.112948,-2.0879 -0.852138,-0.427749 -1.77549,-0.260599 -2.434075,0.44063 -0.294906,0.314001 -0.587954,1.167391 -0.519033,1.511492 0.0204,0.101864 0.06389,0.312209 0.09665,0.467432 0.07534,0.357057 0.721902,1.079919 1.122188,1.254625 0.471223,0.205667 1.245247,0.171817 1.759087,-0.07693 z"
       id="path4157"
       inkscape:connector-curvature="0" /><path
       style="fill:#2c3e50;fill-opacity:1"
       d="M 6.7898305,10.896133 C 4.2434108,10.844704 4.0089982,10.824481 3.5610169,10.617583 3.295339,10.49488 3.0779661,10.412216 3.0779661,10.433884 c 0,0.02167 -0.1474869,-0.09531 -0.3277486,-0.259956 C 2.5699558,10.009285 2.3640236,9.8745763 2.2925904,9.8745763 c -0.071433,0 -0.1298785,-0.065323 -0.1298785,-0.1451614 0,-0.079839 -0.1060339,-0.2285675 -0.2356307,-0.3305085 C 1.7974843,9.2969655 1.6863553,9.190678 1.6801278,9.1627119 1.6739003,9.1347458 1.5740019,8.8906976 1.4581314,8.6203825 1.3422608,8.3500675 1.2474576,8.0667513 1.2474576,7.9907911 c 0,-0.07596 -0.035373,-0.1599717 -0.078608,-0.1866921 C 1.1256154,7.7773788 1.1196794,7.3392289 1.1556588,6.8304326 1.240471,5.6310737 1.6029411,4.8534294 2.4405289,4.0738694 2.7631533,3.7735964 3.05,3.5367251 3.0779661,3.5474888 3.1942647,3.5922502 3.4847458,3.4457247 3.4847458,3.3422996 c 0,-0.061485 0.030111,-0.08168 0.066914,-0.044877 0.036803,0.036803 0.1209726,0.02205 0.1870439,-0.032784 0.076201,-0.063241 3.0980458,-0.1009512 8.263674,-0.1031238 l 8.143544,-0.00343 0.51687,0.3047572 c 0.284277,0.1676165 0.516869,0.2834608 0.516869,0.2574319 0,-0.048026 0.926758,0.9627743 1.237408,1.3496224 0.09329,0.116168 0.142864,0.2379635 0.11017,0.2706567 C 22.494546,5.373251 22.51356,5.4 22.569492,5.4 c 0.132958,0 0.139675,0.047996 0.201608,1.4406023 0.04549,1.0227701 0.02588,1.2471433 -0.142205,1.6271187 -0.107231,0.2424144 -0.20919,0.4865163 -0.226574,0.5424485 -0.09094,0.2925904 -1.207354,1.2210325 -1.813597,1.5082405 l -0.680249,0.322268 -3.20339,0.06571 c -3.584371,0.07352 -5.885079,0.07114 -9.9152545,-0.01025 z M 5.9880868,8.7502124 C 6.9325719,8.292995 7.2800113,7.2048348 6.8095923,6.1773045 6.4461384,5.3834165 5.9232833,5.0507107 4.9983476,5.0247644 4.1936595,5.0021912 3.83115,5.1887775 3.3502082,5.8730744 2.821328,6.625579 2.8749359,7.5260734 3.4956862,8.3167861 4.0826989,9.064524 5.0068317,9.2252298 5.9880868,8.7502124 Z"
       id="path4159"
       inkscape:connector-curvature="0" /><path
       style="fill:#34495e;fill-opacity:1"
       d="M 7.4,10.893419 C 4.1875595,10.84096 4.022566,10.828747 3.541192,10.607783 3.2646103,10.480824 2.8901214,10.263915 2.7089943,10.125762 2.5278672,9.9876101 2.3308562,9.8745763 2.2711921,9.8745763 c -0.059664,0 -0.1084802,-0.065323 -0.1084802,-0.1451614 0,-0.079839 -0.1089886,-0.2308918 -0.2421969,-0.3356733 C 1.5615666,9.1113926 1.1457627,7.8701429 1.1457627,7.0809658 c 0,-0.7961136 0.2725082,-1.7034003 0.6968887,-2.3202163 0.352341,-0.51211 1.0547852,-1.1267154 1.4132808,-1.2365535 0.1258475,-0.038558 0.2288136,-0.1051571 0.2288136,-0.1479981 0,-0.042841 0.057203,-0.091798 0.1271186,-0.1087929 0.069915,-0.016995 3.817787,-0.048804 8.3286036,-0.070686 l 8.201486,-0.039786 0.602145,0.3529075 c 0.598838,0.3509695 1.25421,0.9771729 1.614872,1.5429985 0.103881,0.1629729 0.225504,0.3226697 0.270275,0.354882 0.04477,0.032212 0.10992,0.5907282 0.144776,1.2411466 0.05717,1.0666894 0.04082,1.2453178 -0.166749,1.8227883 C 22.257054,9.4459626 21.132004,10.426129 20.010169,10.734303 19.410262,10.899101 12.831398,10.982114 7.4,10.893419 Z M 6.1458271,8.6285942 C 6.7524461,8.2730919 7.029171,7.7394171 6.9958343,6.9893222 6.9379914,5.6878225 5.880105,4.8396718 4.5612814,5.0374417 4.1646765,5.0969162 3.9823842,5.1970996 3.6413878,5.5429931 2.9736529,6.2203169 2.8148967,7.14613 3.2305504,7.9388588 3.4271609,8.3138319 4.0213048,8.8551292 4.2938973,8.9076257 4.423322,8.9325506 4.5446412,8.96837 4.5634955,8.9872244 4.6799059,9.1036346 5.7485055,8.8614402 6.1458271,8.6285942 Z"
       id="path4161"
       inkscape:connector-curvature="0" /><path
       style="fill:#34495e;fill-opacity:1"
       d="M 4.3925432,10.797617 C 3.7603626,10.729518 3.583014,10.656636 2.4938634,10.017347 2.3124373,9.9108569 2.1637085,9.7840075 2.1633549,9.7354592 2.1630012,9.6869108 2.0266982,9.4922784 1.8604591,9.3029426 1.0870728,8.4221043 0.94271837,6.6204153 1.5427887,5.3380945 1.8566004,4.6674944 2.8395668,3.5694915 3.1260973,3.5694915 c 0.077402,0 0.2018934,-0.061163 0.2766476,-0.1359168 C 3.5997431,3.2365765 6.4396189,3.1622015 13.876711,3.1592665 l 6.273323,-0.00248 0.540237,0.3240626 c 0.683693,0.4101152 1.213641,0.9104941 1.677663,1.5840592 l 0.36465,0.5293193 0.01168,1.3011892 c 0.0101,1.1260705 -0.01717,1.3627782 -0.202633,1.7588162 -0.294778,0.6294653 -1.16546,1.4495337 -1.965458,1.8512017 l -0.667693,0.335239 -7.423729,0.01447 c -4.0830511,0.008 -7.7245422,-0.01793 -8.0922028,-0.05753 z M 5.9855439,8.7251273 C 6.3887562,8.5146326 6.8345132,8.0291161 6.8984571,7.7307866 7.0916722,6.8293417 6.8936977,6.0719168 6.3322943,5.5647227 5.6440779,4.9429605 4.5367871,4.8386252 3.8658485,5.33232 3.5144353,5.5908995 3.1273765,6.2249609 3.0267508,6.7068904 2.8679946,7.467226 3.4273866,8.4599203 4.2291191,8.8406074 4.6702732,9.0500808 5.462906,8.9979674 5.9855439,8.7251273 Z"
       id="path4163"
       inkscape:connector-curvature="0" /><path
       style="fill:#34495e;fill-opacity:1"
       d="M 11.823729,20.857627 3.9423729,20.80678 3.3732755,20.527295 C 2.6853172,20.189438 1.7336336,19.224085 1.4209877,18.546967 1.2347144,18.143542 1.1966102,17.879681 1.1966102,16.99322 c 0,-0.958858 0.028513,-1.125856 0.2794845,-1.636894 0.3323195,-0.676682 1.2528691,-1.590686 1.9632895,-1.949331 l 0.5029887,-0.253926 5.8474576,-0.05408 c 3.2161015,-0.02975 6.8313555,-0.02204 8.0338985,0.01713 l 2.18644,0.07121 0.678115,0.327899 c 0.782043,0.378154 1.50976,1.114939 1.878321,1.901728 0.202495,0.432279 0.238337,0.669861 0.239181,1.585452 9.15e-4,0.995644 -0.02219,1.123364 -0.305937,1.691201 -0.457205,0.914948 -1.666332,1.923932 -2.591374,2.162433 -0.111865,0.02884 -3.75,0.02956 -8.084746,0.0016 z m 8.23951,-2.092958 c 0.446375,-0.260697 0.93186,-1.084787 0.983681,-1.669754 0.07754,-0.875273 -0.641576,-1.790841 -1.607111,-2.046154 -0.943605,-0.249515 -1.969969,0.314218 -2.338418,1.284385 -0.222759,0.586545 -0.229243,0.677723 -0.08511,1.196752 0.119951,0.431939 0.605637,1.032548 1.056891,1.306972 0.408137,0.248203 1.5099,0.20823 1.990064,-0.0722 z"
       id="path4165"
       inkscape:connector-curvature="0" /></g></svg>